<mxfile host="app.diagrams.net" modified="2020-11-27T08:04:35.986Z" agent="5.0 (Windows NT 10.0; Win64; x64) AppleWebKit/537.36 (KHTML, like Gecko) Chrome/77.0.3865.120 Safari/537.36" etag="Ws1POS4g2zORx6PsEdxv" version="13.10.3" type="github">
  <diagram id="IerF1X1bEQ-JxPGX92x0" name="Page-1">
    <mxGraphModel dx="909" dy="435" grid="1" gridSize="10" guides="1" tooltips="1" connect="1" arrows="1" fold="1" page="1" pageScale="1" pageWidth="827" pageHeight="1169" math="0" shadow="0">
      <root>
        <mxCell id="0" />
        <mxCell id="1" parent="0" />
        <mxCell id="vK5Jy0w-jDRxXVp1QJg0-1" value="首领副本" style="rounded=0;whiteSpace=wrap;html=1;" parent="1" vertex="1">
          <mxGeometry x="359" y="120" width="110" height="40" as="geometry" />
        </mxCell>
        <mxCell id="vK5Jy0w-jDRxXVp1QJg0-5" value="follower副本" style="rounded=0;whiteSpace=wrap;html=1;" parent="1" vertex="1">
          <mxGeometry x="120" y="220" width="110" height="40" as="geometry" />
        </mxCell>
        <mxCell id="vK5Jy0w-jDRxXVp1QJg0-7" value="follower副本" style="rounded=0;whiteSpace=wrap;html=1;" parent="1" vertex="1">
          <mxGeometry x="280" y="220" width="110" height="40" as="geometry" />
        </mxCell>
        <mxCell id="vK5Jy0w-jDRxXVp1QJg0-8" value="follower副本" style="rounded=0;whiteSpace=wrap;html=1;" parent="1" vertex="1">
          <mxGeometry x="450" y="220" width="110" height="40" as="geometry" />
        </mxCell>
        <mxCell id="vK5Jy0w-jDRxXVp1QJg0-9" value="follower副本" style="rounded=0;whiteSpace=wrap;html=1;" parent="1" vertex="1">
          <mxGeometry x="620" y="220" width="110" height="40" as="geometry" />
        </mxCell>
        <mxCell id="vK5Jy0w-jDRxXVp1QJg0-11" value="" style="endArrow=classic;html=1;exitX=0.75;exitY=0;exitDx=0;exitDy=0;entryX=0;entryY=0.75;entryDx=0;entryDy=0;" parent="1" source="vK5Jy0w-jDRxXVp1QJg0-5" target="vK5Jy0w-jDRxXVp1QJg0-1" edge="1">
          <mxGeometry width="50" height="50" relative="1" as="geometry">
            <mxPoint x="410" y="310" as="sourcePoint" />
            <mxPoint x="460" y="260" as="targetPoint" />
          </mxGeometry>
        </mxCell>
        <mxCell id="vK5Jy0w-jDRxXVp1QJg0-12" value="" style="endArrow=classic;html=1;exitX=0.75;exitY=0;exitDx=0;exitDy=0;entryX=0.345;entryY=1.072;entryDx=0;entryDy=0;entryPerimeter=0;" parent="1" source="vK5Jy0w-jDRxXVp1QJg0-7" target="vK5Jy0w-jDRxXVp1QJg0-1" edge="1">
          <mxGeometry width="50" height="50" relative="1" as="geometry">
            <mxPoint x="410" y="310" as="sourcePoint" />
            <mxPoint x="460" y="260" as="targetPoint" />
          </mxGeometry>
        </mxCell>
        <mxCell id="vK5Jy0w-jDRxXVp1QJg0-13" value="" style="endArrow=classic;html=1;entryX=1;entryY=1;entryDx=0;entryDy=0;exitX=0.635;exitY=0.035;exitDx=0;exitDy=0;exitPerimeter=0;" parent="1" source="vK5Jy0w-jDRxXVp1QJg0-8" target="vK5Jy0w-jDRxXVp1QJg0-1" edge="1">
          <mxGeometry width="50" height="50" relative="1" as="geometry">
            <mxPoint x="410" y="310" as="sourcePoint" />
            <mxPoint x="460" y="260" as="targetPoint" />
          </mxGeometry>
        </mxCell>
        <mxCell id="vK5Jy0w-jDRxXVp1QJg0-14" value="" style="endArrow=classic;html=1;entryX=1;entryY=0.5;entryDx=0;entryDy=0;exitX=0.5;exitY=0;exitDx=0;exitDy=0;" parent="1" source="vK5Jy0w-jDRxXVp1QJg0-9" target="vK5Jy0w-jDRxXVp1QJg0-1" edge="1">
          <mxGeometry width="50" height="50" relative="1" as="geometry">
            <mxPoint x="410" y="310" as="sourcePoint" />
            <mxPoint x="460" y="260" as="targetPoint" />
          </mxGeometry>
        </mxCell>
        <mxCell id="vK5Jy0w-jDRxXVp1QJg0-15" value="根据offset 请求新消息" style="text;html=1;align=center;verticalAlign=middle;resizable=0;points=[];autosize=1;" parent="1" vertex="1">
          <mxGeometry x="160" y="168" width="130" height="20" as="geometry" />
        </mxCell>
        <mxCell id="vK5Jy0w-jDRxXVp1QJg0-16" value="10s 未请求消息" style="text;html=1;align=center;verticalAlign=middle;resizable=0;points=[];autosize=1;" parent="1" vertex="1">
          <mxGeometry x="270" y="260" width="100" height="20" as="geometry" />
        </mxCell>
        <mxCell id="vK5Jy0w-jDRxXVp1QJg0-17" value="10s 未请求新消息" style="text;html=1;align=center;verticalAlign=middle;resizable=0;points=[];autosize=1;" parent="1" vertex="1">
          <mxGeometry x="445" y="270" width="110" height="20" as="geometry" />
        </mxCell>
        <mxCell id="vK5Jy0w-jDRxXVp1QJg0-18" value="根据offset 请求新消息" style="text;html=1;align=center;verticalAlign=middle;resizable=0;points=[];autosize=1;" parent="1" vertex="1">
          <mxGeometry x="560" y="178" width="130" height="20" as="geometry" />
        </mxCell>
        <mxCell id="vK5Jy0w-jDRxXVp1QJg0-19" value="InSync Replica" style="text;html=1;align=center;verticalAlign=middle;resizable=0;points=[];autosize=1;" parent="1" vertex="1">
          <mxGeometry x="110" y="270" width="100" height="20" as="geometry" />
        </mxCell>
        <mxCell id="vK5Jy0w-jDRxXVp1QJg0-20" value="InSync Replica" style="text;html=1;align=center;verticalAlign=middle;resizable=0;points=[];autosize=1;" parent="1" vertex="1">
          <mxGeometry x="630" y="270" width="100" height="20" as="geometry" />
        </mxCell>
        <mxCell id="vK5Jy0w-jDRxXVp1QJg0-21" value="副本复制" style="text;html=1;align=center;verticalAlign=middle;resizable=0;points=[];autosize=1;strokeWidth=6;fontSize=19;" parent="1" vertex="1">
          <mxGeometry x="100" y="100" width="90" height="30" as="geometry" />
        </mxCell>
        <mxCell id="vK5Jy0w-jDRxXVp1QJg0-24" style="edgeStyle=orthogonalEdgeStyle;rounded=0;orthogonalLoop=1;jettySize=auto;html=1;entryX=0;entryY=0.5;entryDx=0;entryDy=0;fontSize=12;" parent="1" source="vK5Jy0w-jDRxXVp1QJg0-22" target="vK5Jy0w-jDRxXVp1QJg0-23" edge="1">
          <mxGeometry relative="1" as="geometry" />
        </mxCell>
        <mxCell id="vK5Jy0w-jDRxXVp1QJg0-22" value="consumer" style="rounded=0;whiteSpace=wrap;html=1;strokeWidth=1;fontSize=12;" parent="1" vertex="1">
          <mxGeometry x="68" y="380" width="100" height="40" as="geometry" />
        </mxCell>
        <mxCell id="vK5Jy0w-jDRxXVp1QJg0-28" style="edgeStyle=orthogonalEdgeStyle;rounded=0;orthogonalLoop=1;jettySize=auto;html=1;entryX=0.75;entryY=0;entryDx=0;entryDy=0;fontSize=12;" parent="1" source="vK5Jy0w-jDRxXVp1QJg0-23" target="vK5Jy0w-jDRxXVp1QJg0-27" edge="1">
          <mxGeometry relative="1" as="geometry" />
        </mxCell>
        <mxCell id="vK5Jy0w-jDRxXVp1QJg0-23" value="broker (leader)" style="rounded=0;whiteSpace=wrap;html=1;strokeWidth=1;fontSize=12;" parent="1" vertex="1">
          <mxGeometry x="377" y="380" width="110" height="40" as="geometry" />
        </mxCell>
        <mxCell id="vK5Jy0w-jDRxXVp1QJg0-25" value="offset" style="text;html=1;align=center;verticalAlign=middle;resizable=0;points=[];autosize=1;fontSize=12;" parent="1" vertex="1">
          <mxGeometry x="238" y="380" width="40" height="20" as="geometry" />
        </mxCell>
        <mxCell id="vK5Jy0w-jDRxXVp1QJg0-27" value="" style="shape=process;whiteSpace=wrap;html=1;backgroundOutline=1;strokeWidth=1;fontSize=12;" parent="1" vertex="1">
          <mxGeometry x="343" y="490" width="120" height="30" as="geometry" />
        </mxCell>
        <mxCell id="vK5Jy0w-jDRxXVp1QJg0-29" value="查找文件" style="text;html=1;align=center;verticalAlign=middle;resizable=0;points=[];autosize=1;fontSize=12;" parent="1" vertex="1">
          <mxGeometry x="408" y="440" width="60" height="20" as="geometry" />
        </mxCell>
        <mxCell id="vK5Jy0w-jDRxXVp1QJg0-30" value="" style="endArrow=classic;html=1;fontSize=12;exitX=0.174;exitY=0.004;exitDx=0;exitDy=0;exitPerimeter=0;" parent="1" source="vK5Jy0w-jDRxXVp1QJg0-27" edge="1">
          <mxGeometry width="50" height="50" relative="1" as="geometry">
            <mxPoint x="348" y="400" as="sourcePoint" />
            <mxPoint x="178" y="420" as="targetPoint" />
          </mxGeometry>
        </mxCell>
        <mxCell id="vK5Jy0w-jDRxXVp1QJg0-31" value="零拷贝" style="text;html=1;align=center;verticalAlign=middle;resizable=0;points=[];autosize=1;fontSize=12;" parent="1" vertex="1">
          <mxGeometry x="253" y="430" width="50" height="20" as="geometry" />
        </mxCell>
        <mxCell id="vK5Jy0w-jDRxXVp1QJg0-33" value=".log" style="text;html=1;align=center;verticalAlign=middle;resizable=0;points=[];autosize=1;fontSize=12;" parent="1" vertex="1">
          <mxGeometry x="393" y="520" width="30" height="20" as="geometry" />
        </mxCell>
        <mxCell id="vK5Jy0w-jDRxXVp1QJg0-35" value="消费消息" style="text;html=1;align=center;verticalAlign=middle;resizable=0;points=[];autosize=1;fontSize=19;" parent="1" vertex="1">
          <mxGeometry x="50" y="340" width="90" height="30" as="geometry" />
        </mxCell>
        <mxCell id="vK5Jy0w-jDRxXVp1QJg0-37" value="partiton" style="text;html=1;align=center;verticalAlign=middle;resizable=0;points=[];autosize=1;fontSize=19;" parent="1" vertex="1">
          <mxGeometry x="70" y="615" width="80" height="30" as="geometry" />
        </mxCell>
        <mxCell id="vK5Jy0w-jDRxXVp1QJg0-38" value="t_product_0 文件夹" style="text;html=1;align=center;verticalAlign=middle;resizable=0;points=[];autosize=1;fontSize=19;" parent="1" vertex="1">
          <mxGeometry x="324" y="615" width="180" height="30" as="geometry" />
        </mxCell>
        <mxCell id="vK5Jy0w-jDRxXVp1QJg0-39" value="" style="endArrow=classic;html=1;fontSize=19;" parent="1" edge="1">
          <mxGeometry width="50" height="50" relative="1" as="geometry">
            <mxPoint x="160" y="630" as="sourcePoint" />
            <mxPoint x="300" y="630" as="targetPoint" />
          </mxGeometry>
        </mxCell>
        <mxCell id="vK5Jy0w-jDRxXVp1QJg0-40" value="segments" style="text;html=1;align=center;verticalAlign=middle;resizable=0;points=[];autosize=1;fontSize=19;" parent="1" vertex="1">
          <mxGeometry x="50" y="710" width="100" height="30" as="geometry" />
        </mxCell>
        <mxCell id="vK5Jy0w-jDRxXVp1QJg0-44" style="edgeStyle=orthogonalEdgeStyle;rounded=0;orthogonalLoop=1;jettySize=auto;html=1;fontSize=19;" parent="1" source="vK5Jy0w-jDRxXVp1QJg0-41" edge="1">
          <mxGeometry relative="1" as="geometry">
            <mxPoint x="550" y="680" as="targetPoint" />
          </mxGeometry>
        </mxCell>
        <mxCell id="vK5Jy0w-jDRxXVp1QJg0-41" value="xxxxxxxxxx.log 文件" style="text;html=1;align=center;verticalAlign=middle;resizable=0;points=[];autosize=1;fontSize=19;" parent="1" vertex="1">
          <mxGeometry x="254" y="665" width="180" height="30" as="geometry" />
        </mxCell>
        <mxCell id="vK5Jy0w-jDRxXVp1QJg0-42" value="xxxxxxxxxx.index 文件" style="text;html=1;align=center;verticalAlign=middle;resizable=0;points=[];autosize=1;fontSize=19;" parent="1" vertex="1">
          <mxGeometry x="254" y="710" width="200" height="30" as="geometry" />
        </mxCell>
        <mxCell id="vK5Jy0w-jDRxXVp1QJg0-43" value="xxxxxxxxxx.timeindex 文件" style="text;html=1;align=center;verticalAlign=middle;resizable=0;points=[];autosize=1;fontSize=19;" parent="1" vertex="1">
          <mxGeometry x="253" y="750" width="240" height="30" as="geometry" />
        </mxCell>
        <mxCell id="vK5Jy0w-jDRxXVp1QJg0-45" value="&amp;nbsp;xxxxxxxxxx+1&amp;nbsp; 到 yyyyyyyyy 偏移量的消息" style="text;html=1;align=center;verticalAlign=middle;resizable=0;points=[];autosize=1;fontSize=19;" parent="1" vertex="1">
          <mxGeometry x="570" y="665" width="380" height="30" as="geometry" />
        </mxCell>
        <mxCell id="vK5Jy0w-jDRxXVp1QJg0-46" value="log 中第n 条消息及其在段中位置" style="text;html=1;align=center;verticalAlign=middle;resizable=0;points=[];autosize=1;fontSize=19;" parent="1" vertex="1">
          <mxGeometry x="580" y="695" width="290" height="30" as="geometry" />
        </mxCell>
      </root>
    </mxGraphModel>
  </diagram>
</mxfile>
